<?xml version="1.0" encoding="UTF-8"?>
<svg width="1200pt" height="1200pt" version="1.1" viewBox="0 0 1200 1200" xmlns="http://www.w3.org/2000/svg">
 <g>
  <path d="m1134.3 579.95c-36.875-95.426-113.02-247.29-157.68-346.77-9.5508-21.266-10.441-101.69-37.129-113.29s-80.051 26.281-163.59 27.445c-22.32 26.785-55.609 75.516-69.781 96.574-2.4375-6.2891-8.1953-10.715-14.914-10.715h-5.793v-63.805c0-3.8398-3.1211-6.9609-6.9609-6.9609 0 0-387.43-52.645-412.5-56.039-25.055-3.4062-22.703 15.898-20.809 19.246l56.34 107.57h-2.3984c-8.9297 0-16.164 7.7891-16.164 17.398l-16.32 97.453c0 9.6133 7.7891 17.398 17.398 17.398h-3.5898c-3.1562 0-6.1094-0.85156-8.6641-2.3281-126.78 79.305-211.77 223.63-211.77 381.69 0 209.99 193.22 349.21 431.58 349.21s431.58-139.22 431.58-349.21c0-157.41-84.312-301.18-210.21-380.69 6.3242-2.6055 10.777-8.8203 10.777-16.078l-2.2305-13.32c30.742-20.039 84.359-55.402 99.719-68.363 21.926-18.492 65.004-28.402 89.328 24.359 13.957 30.277 85.031 216.35 164.16 306.11 14.699 16.68 32.461 25.043 48.637 25.727 8.6406 0.35938 25.5-5.0664 10.992-42.613zm-411.88-144.9c92.578 74.977 148.5 189.82 148.5 309.77 0 84.445-36.781 157.82-106.36 212.22-69.938 54.672-166.89 84.781-273.02 84.781-106.12 0-203.07-30.109-273.02-84.781-69.574-54.383-106.36-127.78-106.36-212.22 0-117.3 53.473-229.7 142.4-304.73 9.3711-7.9062 23.508-22.441 59.473-22.441h356.17c29.016 0 44.723 11.328 52.211 17.398z"/>
  <path d="m141.42 741c-0.011719 1.2734-0.058594 2.543-0.058594 3.8164 0 75.145 32.902 140.58 95.148 189.24 64.836 50.688 155.43 78.602 255.06 78.602 99.637 0 190.22-27.91 255.06-78.602 62.242-48.66 95.148-114.1 95.148-189.24 0-1.2734-0.035156-2.543-0.058594-3.8164z"/>
  <path d="m699.84 468.32c-30.383-14.531-35.914-6.793-12.277 17.207 0 0 36.938 37.512 50.039 96.457 13.094 58.945-4.4883 108.56-4.4883 108.56-11.258 31.754-2.9648 36.434 18.406 10.391 0 0 48.707-59.316 33.133-129.42-15.574-70.098-84.812-103.2-84.812-103.2z"/>
  <path d="m699.84 468.32c-30.383-14.531-35.914-6.793-12.277 17.207 0 0 36.938 37.512 50.039 96.457 13.094 58.945-4.4883 108.56-4.4883 108.56-11.258 31.754-2.9648 36.434 18.406 10.391 0 0 48.707-59.316 33.133-129.42-15.574-70.098-84.812-103.2-84.812-103.2z"/>
 </g>
</svg>
